<?xml version="1.0" encoding="UTF-8"?>
<svg width="46px" height="38px" viewBox="0 0 46 38" version="1.1" xmlns="http://www.w3.org/2000/svg" xmlns:xlink="http://www.w3.org/1999/xlink">
    <!-- Generator: Sketch 51 (57462) - http://www.bohemiancoding.com/sketch -->
    <title>icon finance</title>
    <desc>Created with Sketch.</desc>
    <defs></defs>
    <g id="Page-1" stroke="none" stroke-width="1" fill="none" fill-rule="evenodd">
        <g id="Bộ-KPI-VTCD" transform="translate(-48.000000, -485.000000)">
            <rect fill="#FFFFFF" x="0" y="0" width="1366" height="2109"></rect>
            <g id="Tài-chính" transform="translate(48.000000, 485.000000)" fill="#f27577" fill-rule="nonzero">
                <g id="icon-finance">
                    <path d="M3.7069,22.293 C3.521,22.107 3.263,22 3,22 C2.737,22 2.479,22.107 2.293,22.293 C2.107,22.479 2,22.736 2,23 C2,23.263 2.1069,23.521 2.293,23.707 C2.479,23.8929 2.737,24 3,24 C3.263,24 3.521,23.893 3.7069,23.707 C3.8929,23.52 4,23.263 4,23 C4,22.737 3.893,22.479 3.7069,22.293 Z" id="Shape"></path>
                    <path d="M2.85356372,2.07191421 L1.85357205,0.264591975 C1.65827368,-0.0881973252 1.34177632,-0.0881973252 1.14642795,0.264591975 L0.14643628,2.07191421 C-0.0488120932,2.42479388 -0.0488120932,2.9969921 0.14643628,3.34996213 C0.341734652,3.70275143 0.658232015,3.70275143 0.853580387,3.34996213 L1.00002917,3.08537016 L1.00002917,20.0963389 C1.00002917,20.5953406 1.2239273,21 1.500025,21 C1.7761227,21 2.00002083,20.5953406 2.00002083,20.0963389 L2.00002083,3.08537016 L2.14646961,3.3500525 C2.2441188,3.52635678 2.37206773,3.61464447 2.50001667,3.61464447 C2.6279656,3.61464447 2.75591453,3.52635678 2.85356372,3.34996213 C3.04881209,2.99708247 3.04881209,2.42488425 2.85356372,2.07191421 Z" id="Shape"></path>
                    <path d="M45.7381019,34.6534522 L43.9494858,32.8480207 C43.6001691,32.4956004 43.0340721,32.4956004 42.684666,32.8480207 C42.3354387,33.2005312 42.3354387,33.7721308 42.684666,34.1247316 L42.9466088,34.389137 L39.7371161,34.389137 L39.7371161,21.7209658 C39.7371161,21.2224862 39.336645,20.8182501 38.8428081,20.8182501 C38.3489712,20.8182501 37.9485,21.2224862 37.9485,21.7209658 L37.9485,34.3890467 L28.257331,34.3890467 L28.257331,28.6116659 C28.257331,28.1131863 27.8568599,27.7089502 27.363023,27.7089502 C26.8691861,27.7089502 26.468715,28.1131863 26.468715,28.6116659 L26.468715,34.3890467 L19.0343323,34.3890467 L19.0343323,19.9027157 C19.0343323,19.4042361 18.6338611,19 18.1400242,19 C17.6461873,19 17.2457162,19.4042361 17.2457162,19.9027157 L17.2457162,34.3890467 L10.065317,34.3890467 L10.065317,28.7470733 C10.065317,28.2485937 9.66484587,27.8443576 9.17100897,27.8443576 C8.67717208,27.8443576 8.27670094,28.2485937 8.27670094,28.7470733 L8.27670094,34.3890467 L3.78861607,34.3890467 L3.78861607,29.1934662 C3.78861607,28.6949866 3.38814493,28.2907505 2.89430803,28.2907505 C2.40047114,28.2907505 2,28.6949866 2,29.1934662 L2,35.2917625 C2,35.7902421 2.40047114,36.1944782 2.89430803,36.1944782 L42.9465194,36.1944782 L42.6845765,36.4588837 C42.3353492,36.8113942 42.3353492,37.3829938 42.6845765,37.7355946 C42.8592349,37.9118047 43.0880883,38 43.3169417,38 C43.5457952,38 43.7746486,37.9118047 43.949307,37.7355946 L45.737923,35.9301631 C46.0873292,35.5775623 46.0873292,35.0059627 45.7381019,34.6534522 Z" id="Shape"></path>
                    <path d="M38.7825366,5 C37.0083738,5 35.5650732,6.39089738 35.5650732,8.10064405 C35.5650732,8.59098325 35.6843012,9.05495921 35.8954898,9.46758265 L28.9178884,16.191842 C28.4522041,15.9390296 27.9154998,15.7940747 27.3440429,15.7940747 C26.7853287,15.7940747 26.2595848,15.9322456 25.8012074,16.1745814 L21.0818096,11.626535 C21.2674239,11.2350365 21.3716816,10.8005152 21.3716816,10.3426363 C21.3716816,8.63288965 19.928381,7.2419064 18.1542182,7.2419064 C16.3800554,7.2419064 14.9366657,8.63288965 14.9366657,10.3426363 C14.9366657,10.8702447 15.0744284,11.3672821 15.316627,11.8025762 L10.7696554,16.1844568 C10.3090503,15.9389438 9.78000936,15.7987119 9.21746341,15.7987119 C7.4433006,15.7987119 6,17.1896093 6,18.8993559 C6,20.6091026 7.44347882,22 9.21764163,22 C10.9918044,22 12.4351941,20.6091026 12.4351941,18.8993559 C12.4351941,18.3547445 12.2882532,17.842851 12.0313516,17.3975955 L16.5595212,13.0338343 C17.0300174,13.2937742 17.5742069,13.4432804 18.1543073,13.4432804 C18.8052495,13.4432804 19.4112807,13.2554745 19.9181335,12.9339631 L24.5357687,17.3839416 C24.27557,17.8312581 24.1265795,18.3464148 24.1265795,18.8947188 C24.1265795,20.6044654 25.5698801,21.9954487 27.3440429,21.9954487 C29.1182057,21.9954487 30.5615063,20.6044654 30.5615063,18.8947188 C30.5615063,18.3587806 30.4195555,17.8541863 30.170139,17.4139116 L37.0957898,10.7397166 C37.5866029,11.0321168 38.1642974,11.201374 38.7825366,11.201374 C40.5566994,11.201374 42,9.81039073 42,8.10064405 C42,6.39089738 40.5566994,5 38.7825366,5 Z M9.21773074,20.2826106 C8.42635254,20.2826106 7.78244996,19.6620867 7.78244996,18.8994418 C7.78244996,18.1367969 8.42617432,17.5161872 9.21764163,17.5161872 C9.60535546,17.5161872 9.9570692,17.6656934 10.2156639,17.9073422 C10.2200302,17.9117218 10.2238619,17.9165307 10.2283174,17.9208244 C10.2335748,17.9258909 10.2393669,17.9301846 10.2448026,17.9351653 C10.4969814,18.1845427 10.6531006,18.524517 10.6531006,18.8994418 C10.6531006,19.6621726 10.0091089,20.2826106 9.21773074,20.2826106 Z M18.1543964,11.7257192 C17.3630182,11.7257192 16.7190265,11.1051954 16.7190265,10.3425505 C16.7190265,9.57990554 17.3629291,8.95929584 18.1543964,8.95929584 C18.9458637,8.95929584 19.5896772,9.57990554 19.5896772,10.3425505 C19.5896772,11.1051954 18.9457746,11.7257192 18.1543964,11.7257192 Z M27.3442211,20.2778875 C26.552843,20.2778875 25.9089404,19.6572778 25.9089404,18.8946329 C25.9089404,18.131988 26.552843,17.5114641 27.3442211,17.5114641 C28.1355993,17.5114641 28.7795019,18.1319021 28.7795019,18.8946329 C28.7795019,19.6573637 28.1355993,20.2778875 27.3442211,20.2778875 Z M38.7827148,9.4838128 C37.9913366,9.4838128 37.347434,8.86320309 37.347434,8.10055818 C37.347434,7.33791327 37.9912475,6.71738944 38.7827148,6.71738944 C39.5741821,6.71738944 40.2179956,7.33791327 40.2179956,8.10055818 C40.2179956,8.86320309 39.574093,9.4838128 38.7827148,9.4838128 Z" id="Shape"></path>
                    <path d="M42.707,14.293 C42.521,14.107 42.263,14 42,14 C41.737,14 41.479,14.1069 41.293,14.293 C41.1071,14.479 41,14.737 41,15 C41,15.263 41.107,15.521 41.293,15.7069 C41.479,15.8929 41.737,16 42,16 C42.263,16 42.521,15.893 42.707,15.7069 C42.8929,15.521 43,15.263 43,15 C43,14.737 42.893,14.479 42.707,14.293 Z" id="Shape"></path>
                </g>
            </g>
        </g>
    </g>
</svg>